<?xml version="1.0" encoding="UTF-8"?>
<svg id="Layer_1" data-name="Layer 1" xmlns="http://www.w3.org/2000/svg" width="210" height="52" version="1.1" viewBox="0 0 210 52">
  <defs>
    <style>
      .cls-1 {
        fill: #00358e;
      }

      .cls-1, .cls-2 {
        stroke-width: 0px;
      }

      .cls-2 {
        fill: #2a7de1;
      }
    </style>
  </defs>
  <path class="cls-1" d="M124.97,19.01c.09.03.15.11.15.2v4.41c0,.15-.14.24-.28.19-.56-.21-1.96-.64-3.93-.61-1.17,0-2.26.19-3.32.59-.08.03-.14.11-.14.2v16.23c0,.11-.09.21-.21.21h-4.58c-.11,0-.21-.09-.21-.21v-19.43c0-.07.04-.14.1-.18.61-.35,3.84-2.11,8.35-2.11,1.99-.02,3.58.38,4.06.51ZM108.81,28.3v2.32c0,.11-.09.21-.21.21h-14.42c-.12,0-.22.11-.21.23.19,1.64.96,3.04,2.24,4.04,1.23.96,2.83,1.49,4.52,1.49,3.45.03,6.1-1.41,6.98-1.96.14-.09.32.01.32.18v3.97c0,.07-.03.13-.09.17-.48.34-2.96,1.94-7.55,1.97-3.32,0-6.14-1.04-8.17-3-2.05-1.99-3.13-4.79-3.13-8.11,0-3.33,1.03-6.19,2.98-8.29,1.89-2.03,4.54-3.15,7.45-3.15,5.89,0,9.27,3.63,9.27,9.95ZM103.88,27.51c.12,0,.22-.1.21-.22-.19-3.09-1.81-4.72-4.7-4.72-2.59,0-4.51,1.74-5.21,4.68-.03.13.07.25.2.25h9.5ZM150.58,29.77c-1.12-1.05-2.82-1.8-5.38-2.35-2.43-.67-3.29-1.37-3.29-2.69,0-1.42,1.18-2.3,3.07-2.3,2.62-.09,4.93,1.41,5.76,2.02.14.1.33,0,.33-.17v-4.13c0-.07-.03-.13-.09-.17-.47-.31-2.72-1.68-6.14-1.63-.59,0-1.22.03-1.87.1-3.32.32-5.84,3.08-5.86,6.42-.02,3.75,1.78,5.62,6.4,6.68,2.71.71,3.92,1.31,3.92,2.98,0,1.9-1.85,2.3-3.41,2.3-2.9,0-5.42-1.63-6.29-2.27-.14-.1-.33,0-.33.17v4.29c0,.07.03.13.09.17.46.32,2.71,1.69,6.63,1.72,2.41,0,4.43-.55,5.83-1.6,1.55-1.15,2.34-2.84,2.34-5.03,0-1.98-.54-3.41-1.7-4.51ZM130.99,15.62c1.7,0,3.13-1.46,3.13-3.18s-1.44-3.13-3.13-3.13-3.18,1.41-3.18,3.13,1.46,3.18,3.18,3.18ZM128.68,40.42h4.58c.11,0,.21-.09.21-.21v-21.17c0-.11-.09-.21-.21-.21h-4.58c-.11,0-.21.09-.21.21v21.17c0,.11.09.21.21.21ZM164.96,28.51l9.05-9.33c.13-.13.03-.35-.15-.35h-5.61c-.06,0-.11.02-.15.07l-7.41,8.05c-.13.14-.36.05-.36-.14v-15.05c0-.11-.09-.21-.21-.21h-4.58c-.11,0-.21.09-.21.21v28.45c0,.11.09.21.21.21h4.58c.11,0,.21-.09.21-.21v-9.32c0-.19.24-.28.37-.13l7.78,9.58s.1.08.16.08h5.44c.17,0,.27-.2.16-.34l-9.29-11.29c-.07-.08-.06-.2.01-.28ZM86.41,11.67l-9.95,22.65c-.07.17-.31.17-.38,0l-9.95-22.65c-.03-.08-.11-.12-.19-.12h-5.11c-.15,0-.25.15-.19.29l11.61,26.44c1.53,3.49,6.49,3.49,8.03,0l11.61-26.44c.06-.14-.04-.29-.19-.29h-5.11c-.08,0-.16.05-.19.12ZM3.87,12.47c.38-.61,1.05-.97,1.77-.97l8.18.02c.3,0,.5.31.38.58l-2.18,4.94c-.07.15-.22.25-.38.25l-9.49-.04c-.29,0-.49-.29-.39-.56.58-1.48,1.29-2.89,2.11-4.22ZM11.15,5.74c-.4,0-.57-.52-.24-.75C15.31,1.84,20.73-.02,26.59,0s11.26,1.89,15.64,5.06c.33.24.15.75-.25.75l-30.83-.07ZM18.28,46.45c.07-.15.22-.25.38-.25l23.22.06c.4,0,.57.52.24.75-4.4,3.15-9.82,5-15.68,4.98-3.31,0-6.47-.62-9.39-1.71-.22-.08-.33-.34-.23-.56l1.45-3.28ZM21.2,39.85l2.18-4.94c.07-.15.22-.25.38-.25l27.13.07c.29,0,.49.29.39.56-.58,1.48-1.29,2.9-2.12,4.23-.38.61-1.05.97-1.77.97l-25.82-.07c-.3,0-.5-.31-.38-.58ZM52.92,23.55c.08.83.12,1.67.12,2.52s-.05,1.69-.13,2.52c-.02.21-.2.37-.42.37l-25.8-.07c-.3,0-.5-.31-.38-.58l1.43-3.24h0c.52-1.19,1.7-1.95,2.99-1.94l21.77.06c.21,0,.39.16.41.37Z"/>
  <path class="cls-2" d="M51.31,16.76c-.57-1.48-1.28-2.9-2.11-4.24-.38-.61-1.05-.98-1.76-.98h-24.67c-1.24,0-2.36.73-2.86,1.87l-8.19,18.68c-.04.08-.11.12-.19.12s-.15-.04-.19-.12l-3.11-7.13c-.5-1.14-1.62-1.87-2.86-1.87H.54c-.21,0-.39.16-.42.37-.08.83-.13,1.68-.13,2.53s.04,1.67.12,2.5c.02.21.2.37.42.37h2.39c.16,0,.31.09.38.24.65,1.47,4.08,9.23,6.3,14.23.37.82,1.13,1.24,1.9,1.24s1.54-.41,1.9-1.24l10.6-24.14c.5-1.13,1.62-1.87,2.86-1.87h24.06c.29,0,.49-.29.39-.56Z"/>
</svg>